<svg width="56" height="56" viewBox="0 0 56 56" fill="none" xmlns="http://www.w3.org/2000/svg">
<path d="M51.5203 0.120117H4.48027C2.21227 0.120117 0.280273 1.96812 0.280273 4.32012V51.3601C0.280273 53.6281 2.12827 55.5601 4.48027 55.5601H51.5203C53.7883 55.5601 55.7203 53.7121 55.7203 51.3601V4.32012C55.7203 1.96812 53.8723 0.120117 51.5203 0.120117ZM5.57227 52.2001L11.3683 44.7241C11.8723 44.1361 12.5443 43.8001 13.3003 43.8001C14.0563 43.8001 14.8123 44.1361 15.2323 44.7241L21.0283 52.2001H5.57227ZM52.3603 51.3601C52.3603 51.7801 52.0243 52.2001 51.5203 52.2001H25.3123L20.3563 45.8161L31.8643 30.9481C32.2843 30.3601 33.0403 30.0241 33.7123 30.0241C34.4683 30.0241 35.1403 30.3601 35.6443 30.8641L52.3603 50.6041V51.3601ZM52.3603 45.3961L38.1643 28.6801C36.9883 27.3361 35.3923 26.5801 33.6283 26.6641C31.8643 26.6641 30.2683 27.5041 29.1763 28.9321L18.2563 43.0441L17.9203 42.6241C16.8283 41.1961 15.1483 40.3561 13.3003 40.3561C11.4523 40.3561 9.77227 41.1961 8.68027 42.6241L3.64027 49.1761V4.32012C3.64027 3.90012 3.97627 3.48012 4.48027 3.48012H51.5203C51.9403 3.48012 52.3603 3.81612 52.3603 4.32012V45.3961Z" fill="white"/>
<path d="M16.6604 18.6001C13.2164 18.6001 10.3604 21.4561 10.3604 24.9001C10.3604 28.3441 13.2164 31.2001 16.6604 31.2001C20.1044 31.2001 22.9604 28.3441 22.9604 24.9001C22.9604 21.4561 20.1044 18.6001 16.6604 18.6001ZM16.6604 27.8401C15.0644 27.8401 13.7204 26.4961 13.7204 24.9001C13.7204 23.3041 15.0644 21.9601 16.6604 21.9601C18.2564 21.9601 19.6004 23.3041 19.6004 24.9001C19.6004 26.4961 18.2564 27.8401 16.6604 27.8401Z" fill="white"/>
</svg>
